<svg width="112" height="25" viewBox="0 0 112 25" fill="none" xmlns="http://www.w3.org/2000/svg">
<g clip-path="url(#clip0)">
<path d="M108.825 5.31758C108.825 4.96677 108.955 4.67135 109.198 4.43132C109.441 4.19129 109.74 4.06204 110.094 4.06204C110.449 4.06204 110.748 4.19129 110.99 4.43132C111.233 4.67135 111.364 4.96677 111.364 5.31758C111.364 5.66839 111.233 5.96381 110.99 6.20384C110.748 6.44387 110.449 6.57312 110.094 6.57312C109.74 6.57312 109.441 6.44387 109.198 6.20384C108.937 5.96381 108.825 5.64993 108.825 5.31758ZM111.158 5.31758C111.158 5.02216 111.046 4.78213 110.841 4.57903C110.636 4.37593 110.374 4.26514 110.094 4.26514C109.796 4.26514 109.553 4.37593 109.347 4.57903C109.142 4.78213 109.03 5.04062 109.03 5.31758C109.03 5.613 109.142 5.85303 109.347 6.05613C109.553 6.25924 109.814 6.37002 110.094 6.37002C110.393 6.37002 110.636 6.25924 110.841 6.05613C111.046 5.85303 111.158 5.59454 111.158 5.31758ZM110.486 6.0746L110.094 5.4099H109.87V6.0746H109.646V4.52364H110.057C110.43 4.52364 110.617 4.67135 110.617 4.94831C110.617 5.15141 110.524 5.28065 110.318 5.37297L110.748 6.0746H110.486ZM109.87 4.70828V5.22526C109.889 5.22526 109.945 5.22526 110.02 5.22526C110.169 5.22526 110.262 5.2068 110.318 5.16987C110.374 5.13294 110.393 5.05909 110.393 4.96677C110.393 4.80059 110.281 4.70828 110.057 4.70828H109.964H109.87Z" fill="#383A34"/>
<path d="M43.8173 24.3353C43.8173 24.4461 43.7239 24.5199 43.6306 24.5199H39.8967C39.7846 24.5199 39.71 24.4276 39.71 24.3353V0.184638C39.71 0.0738552 39.8033 0 39.8967 0H43.6306C43.7426 0 43.8173 0.0923191 43.8173 0.184638V24.3353Z" fill="#383A34"/>
<path d="M49.5301 24.3353C49.5301 24.4461 49.4368 24.5199 49.3434 24.5199H45.6095C45.4975 24.5199 45.4229 24.4276 45.4229 24.3353V0.184638C45.4229 0.0738552 45.5162 0 45.6095 0H49.3434C49.4554 0 49.5301 0.0923191 49.5301 0.184638V24.3353Z" fill="#383A34"/>
<path d="M27.7616 14.2541L30.4126 16.8759C30.4873 16.9498 30.618 16.9498 30.6927 16.8759L37.6191 10.0258C38.0111 9.63811 38.2165 9.12112 38.2165 8.58567C38.2165 8.05022 37.9925 7.53324 37.6191 7.14549C35.6214 5.16987 32.9517 4.0805 30.1326 4.0805C27.2948 4.0805 24.6438 5.16987 22.6461 7.14549C21.6566 8.10561 20.8912 9.23191 20.3498 10.469C18.7442 6.70236 14.9729 4.06204 10.5856 4.06204C8.15858 4.06204 5.91824 4.87445 4.12596 6.24077V0.184638C4.12596 0.0738552 4.03261 0 3.93927 0H0.186695C0.0933476 0 0 0.0923191 0 0.184638V14.5126C0 20.2917 4.74206 24.9815 10.5856 24.9815C14.9729 24.9815 18.7442 22.3227 20.3498 18.5561C20.8725 19.7932 21.638 20.9195 22.6274 21.8981C24.6251 23.8737 27.2948 24.9631 30.1139 24.9631C32.877 24.9631 35.4721 23.9291 37.4697 22.0273C37.5444 21.9535 37.5444 21.8242 37.4697 21.7504L34.8186 19.1285C34.744 19.0547 34.6133 19.0547 34.5386 19.1285C33.3437 20.2548 31.7755 20.8641 30.1139 20.8641C28.3963 20.8641 26.7721 20.1994 25.5399 18.9993C24.3264 17.7991 23.6543 16.1928 23.6543 14.4756C23.6543 12.777 24.3264 11.1706 25.5399 9.95199C27.5562 7.9579 30.562 7.57016 32.9704 8.75185L27.7429 13.9217C27.6869 14.051 27.6869 14.1802 27.7616 14.2541ZM10.5856 20.9195C7.01974 20.9195 4.12596 18.0576 4.12596 14.531C4.12596 11.0044 7.01974 8.14254 10.5856 8.14254C14.1515 8.14254 17.0453 11.0044 17.0453 14.531C17.0453 18.0576 14.1515 20.9195 10.5856 20.9195Z" fill="#383A34"/>
<path d="M61.6652 8.14254C63.2147 8.14254 64.727 8.69646 65.8845 9.6935C65.9592 9.76736 66.0898 9.76736 66.1645 9.6935C66.1832 9.67504 66.2019 9.65658 66.2019 9.63811C66.7246 8.51182 67.3967 7.49631 68.2368 6.59158C68.3115 6.51773 68.3115 6.38848 68.2182 6.31463C66.3699 4.87445 64.0549 4.06204 61.6652 4.06204C55.8216 4.06204 51.0796 8.77031 51.0796 14.531C51.0796 20.3102 55.8403 25 61.6652 25C64.0549 25 66.3699 24.1876 68.2182 22.7474C68.2928 22.6736 68.3115 22.5443 68.2368 22.4705C67.4154 21.5657 66.7246 20.5318 66.2019 19.4239C66.1832 19.4055 66.1832 19.387 66.1645 19.3685C66.0898 19.2947 65.9592 19.2947 65.8845 19.3685C64.7083 20.3656 63.2147 20.9195 61.6652 20.9195C58.0993 20.9195 55.2055 18.0576 55.2055 14.531C55.2055 11.0044 58.0993 8.14254 61.6652 8.14254Z" fill="#383A34"/>
<path d="M100.591 4.06204C98.519 4.06204 96.5587 4.65288 94.8412 5.76071C93.1796 4.68981 91.2006 4.06204 89.0909 4.06204C87.0373 4.06204 85.0583 4.65288 83.3407 5.74225C81.6791 4.68981 79.7188 4.06204 77.5905 4.06204C71.7469 4.06204 67.0049 8.77031 67.0049 14.531C67.0049 20.3102 71.7656 25 77.5905 25C83.4341 25 88.1761 20.2917 88.1761 14.531C88.1761 12.3892 87.5227 10.3767 86.3839 8.71492C87.224 8.32718 88.1388 8.12408 89.0723 8.12408C92.6195 8.12408 95.5133 10.986 95.5133 14.4941V24.3538C95.5133 24.4646 95.6066 24.5384 95.6999 24.5384H99.4339C99.5459 24.5384 99.6205 24.4461 99.6205 24.3538V14.4941C99.6205 12.3523 98.9671 10.3767 97.8469 8.71492C98.6871 8.32718 99.6019 8.12408 100.554 8.12408C104.101 8.12408 106.995 10.986 106.995 14.4941V24.3538C106.995 24.4646 107.088 24.5384 107.182 24.5384H110.916C111.028 24.5384 111.102 24.4461 111.102 24.3538V14.4941C111.158 8.73339 106.416 4.06204 100.591 4.06204ZM77.5905 20.9195C74.0246 20.9195 71.1308 18.0576 71.1308 14.531C71.1308 11.0044 74.0246 8.14254 77.5905 8.14254C81.1564 8.14254 84.0502 11.0044 84.0502 14.531C84.0502 18.0576 81.1377 20.9195 77.5905 20.9195Z" fill="#383A34"/>
</g>
<defs>
<clipPath id="clip0">
<rect width="111.364" height="25" fill="white"/>
</clipPath>
</defs>
</svg>
